<svg width="28" height="26" viewBox="0 0 28 26" fill="none" xmlns="http://www.w3.org/2000/svg">
<path d="M14.0003 25C13.1403 24.2374 12.1683 23.444 11.1403 22.6H11.127C7.50701 19.64 3.40434 16.2907 1.59234 12.2774C0.997674 11 0.681674 9.6107 0.667007 8.20003C0.665032 7.24267 0.854357 6.29457 1.22386 5.4114C1.59337 4.52822 2.13561 3.72777 2.81875 3.05706C3.50189 2.38634 4.31215 1.85887 5.20196 1.50563C6.09176 1.15239 7.04318 0.980492 8.00034 1.00003C9.57451 1.00252 11.1148 1.45747 12.4377 2.3107C13.019 2.68799 13.5449 3.14437 14.0003 3.6667C14.459 3.1467 14.9843 2.6907 15.5643 2.3107C16.8867 1.45731 18.4266 1.00232 20.0003 1.00003C20.9575 0.980492 21.9089 1.15239 22.7987 1.50563C23.6885 1.85887 24.4988 2.38634 25.1819 3.05706C25.8651 3.72777 26.4073 4.52822 26.7768 5.4114C27.1463 6.29457 27.3357 7.24267 27.3337 8.20003C27.3201 9.61179 27.0046 11.0043 26.4083 12.284C24.5963 16.2974 20.495 19.6454 16.875 22.6L16.8617 22.6107C15.8323 23.4494 14.8617 24.2427 14.0017 25.0107L14.0003 25ZM8.00034 3.6667C6.75836 3.65116 5.56044 4.12649 4.66701 4.98937C4.24095 5.40787 3.90336 5.90775 3.67431 6.4593C3.44526 7.01086 3.32942 7.60282 3.33367 8.20003C3.34834 9.2267 3.58167 10.24 4.01634 11.1707C4.87171 12.9023 6.02584 14.4694 7.42567 15.8C8.74701 17.1334 10.267 18.424 11.5817 19.5094C11.9457 19.8094 12.3163 20.112 12.687 20.4147L12.9203 20.6054C13.2763 20.896 13.6443 21.1974 14.0003 21.4934L14.0177 21.4774L14.0257 21.4707H14.0337L14.0457 21.4614H14.059L14.083 21.4414L14.1377 21.3974L14.147 21.3894L14.1617 21.3787H14.1697L14.1817 21.368L15.067 20.6414L15.299 20.4507C15.6737 20.1454 16.0443 19.8427 16.4083 19.5427C17.723 18.4574 19.2443 17.168 20.5657 15.828C21.9658 14.4981 23.1199 12.9314 23.975 11.2C24.4177 10.2614 24.655 9.23736 24.6683 8.20003C24.6709 7.60453 24.5541 7.01456 24.3249 6.46494C24.0957 5.91533 23.7586 5.41722 23.3337 5.00003C22.442 4.13326 21.2438 3.65401 20.0003 3.6667C19.2501 3.66032 18.507 3.81278 17.8199 4.11405C17.1328 4.41532 16.5173 4.85858 16.0137 5.4147L14.0003 7.7347L11.987 5.4147C11.4834 4.85858 10.8678 4.41532 10.1807 4.11405C9.49364 3.81278 8.75056 3.66032 8.00034 3.6667Z" fill="#333333"/>
</svg>
