<svg width="43" height="59" viewBox="0 0 43 59" fill="none" xmlns="http://www.w3.org/2000/svg">
<path d="M8.42871 59.0002H12.7673V47.2718L18.1548 41.5029L30.8368 59.0002H35.7952L20.92 38.5469L42.4197 14.0479H40.0358L12.7673 44.4111V31.6074H8.42871L8.42871 59.0002Z" fill="#333333"/>
<path d="M0 33.3737H11.9669C14.0964 33.3737 15.8923 33.1036 17.3543 32.5632C18.8164 31.9911 19.9925 31.2601 20.8824 30.3701C21.7724 29.4801 22.4081 28.4789 22.7895 27.3665C23.2027 26.2222 23.4093 25.078 23.4093 23.9337C23.4093 22.122 23.012 20.6758 22.2174 19.5952C21.4545 18.5145 20.5328 17.6881 19.4521 17.116C18.3714 16.5438 17.259 16.1624 16.1147 15.9717C14.9705 15.781 14.0488 15.6698 13.3495 15.638V15.4473C14.462 15.4473 15.5108 15.2407 16.4962 14.8275C17.4815 14.3825 18.3397 13.8263 19.0707 13.1588C19.8335 12.4595 20.4374 11.6649 20.8824 10.7749C21.3274 9.8532 21.5499 8.88377 21.5499 7.86667C21.5499 6.9767 21.3592 6.07084 20.9778 5.14909C20.5964 4.22734 20.0083 3.38505 19.2137 2.62222C18.4509 1.85939 17.4497 1.2396 16.2101 0.76283C15.0023 0.254277 13.572 0 11.9192 0H0V33.3737ZM4 31.276V16.6869H9.58303C11.1405 16.6869 12.4913 16.8935 13.6356 17.3067C14.7798 17.7199 15.7174 18.2761 16.4485 18.9754C17.2113 19.6746 17.7675 20.4851 18.1172 21.4069C18.4986 22.3286 18.6893 23.298 18.6893 24.3151C18.6893 25.4276 18.4827 26.4129 18.0695 27.2711C17.6881 28.1293 17.1636 28.8603 16.4962 29.4642C15.8287 30.0681 15.0341 30.529 14.1123 30.8469C13.2224 31.1329 12.2688 31.276 11.2517 31.276H4ZM4 14.5891V2.09778H10.1552C11.3947 2.09778 12.4436 2.27259 13.3018 2.62222C14.1918 2.97185 14.9069 3.43273 15.4473 4.00485C16.0194 4.57697 16.4326 5.22855 16.6869 5.95959C16.9411 6.69064 17.0683 7.42168 17.0683 8.15273C17.0683 9.07448 16.8776 9.93266 16.4962 10.7273C16.1465 11.5219 15.638 12.2053 14.9705 12.7774C14.3348 13.3495 13.5879 13.7945 12.7297 14.1123C11.9033 14.4302 11.0133 14.5891 10.0598 14.5891H4Z" fill="#333333"/>
<path d="M0 36.5239H4V59.0001H0V36.5239Z" fill="#333333"/>
<path d="M32 59V55.5H41V59H32Z" fill="#333333"/>
<path d="M2 59V55.5H11V59H2Z" fill="#333333"/>
<rect x="39.333" width="2.80952" height="59" fill="#333333"/>
<rect x="23.8818" y="2.80957" width="2.80952" height="18.2619" transform="rotate(-90 23.8818 2.80957)" fill="#333333"/>
</svg>
