<svg width="31" height="42" viewBox="0 0 31 42" fill="none" xmlns="http://www.w3.org/2000/svg">
<path d="M6 42H9.08848V33.6509L12.9236 29.5443L21.9515 42H25.4812L14.8921 27.44L30.197 10H28.5L9.08848 31.6146V22.5H6L6 42Z" fill="white"/>
<path d="M0 23.7576H8.51879C10.0347 23.7576 11.3131 23.5653 12.3539 23.1806C13.3947 22.7733 14.2319 22.2529 14.8655 21.6194C15.499 20.9859 15.9515 20.2731 16.223 19.4812C16.5172 18.6667 16.6642 17.8521 16.6642 17.0376C16.6642 15.7479 16.3814 14.7184 15.8158 13.9491C15.2727 13.1798 14.6166 12.5915 13.8473 12.1842C13.078 11.777 12.2861 11.5055 11.4715 11.3697C10.657 11.2339 10.0008 11.1547 9.50303 11.1321V10.9964C10.2949 10.9964 11.0416 10.8493 11.743 10.5552C12.4444 10.2384 13.0554 9.84242 13.5758 9.36727C14.1188 8.8695 14.5487 8.30384 14.8655 7.6703C15.1822 7.01414 15.3406 6.32404 15.3406 5.6C15.3406 4.96647 15.2048 4.32162 14.9333 3.66546C14.6618 3.00929 14.2432 2.4097 13.6776 1.86667C13.1345 1.32364 12.4218 0.882425 11.5394 0.543031C10.6796 0.18101 9.66141 0 8.48485 0H0V23.7576ZM2.5 22.2642V11.8788H6.82182C7.9305 11.8788 8.89212 12.0259 9.70667 12.32C10.5212 12.6141 11.1887 13.0101 11.7091 13.5079C12.2521 14.0057 12.6481 14.5826 12.897 15.2388C13.1685 15.8949 13.3042 16.5851 13.3042 17.3091C13.3042 18.101 13.1572 18.8024 12.863 19.4133C12.5915 20.0242 12.2182 20.5446 11.743 20.9745C11.2679 21.4044 10.7022 21.7325 10.0461 21.9588C9.41253 22.1624 8.73374 22.2642 8.0097 22.2642H2.5ZM2.5 10.3855V1.49333H7.22909C8.11152 1.49333 8.85818 1.61778 9.46909 1.86667C10.1026 2.11556 10.6117 2.44364 10.9964 2.85091C11.4036 3.25818 11.6978 3.72202 11.8788 4.24242C12.0598 4.76283 12.1503 5.28323 12.1503 5.80364C12.1503 6.4598 12.0145 7.07071 11.743 7.63636C11.4941 8.20202 11.1321 8.68849 10.657 9.09576C10.2044 9.50303 9.67273 9.8198 9.06182 10.0461C8.47354 10.2723 7.84 10.3855 7.16121 10.3855H2.5Z" fill="white"/>
<path d="M0 26.5H2.5V42H0V26.5Z" fill="white"/>
<rect x="28" width="2" height="42" fill="white"/>
<rect x="17" y="2" width="2" height="13" transform="rotate(-90 17 2)" fill="white"/>
<rect y="39" width="8" height="3" fill="white"/>
<rect x="23" y="39" width="7" height="3" fill="white"/>
</svg>
