<?xml version="1.0" encoding="UTF-8"?> <!-- Creator: CorelDRAW X8 --> <svg xmlns="http://www.w3.org/2000/svg" xmlns:xlink="http://www.w3.org/1999/xlink" xml:space="preserve" width="210mm" height="297mm" style="shape-rendering:geometricPrecision; text-rendering:geometricPrecision; image-rendering:optimizeQuality; fill-rule:evenodd; clip-rule:evenodd" viewBox="0 0 21000 29700"> <defs> <style type="text/css"> <![CDATA[ .fil0 {fill:#FEFEFE} ]]> </style> </defs> <g id="Слой_x0020_1"> <metadata id="CorelCorpID_0Corel-Layer"></metadata> <g id="_1472413583552"> <g> <g> <path class="fil0" d="M10500 4350c-5790,0 -10500,4710 -10500,10500 0,5790 4710,10500 10500,10500 5790,0 10500,-4710 10500,-10500 0,-5790 -4710,-10500 -10500,-10500zm0 20125c-5307,0 -9625,-4318 -9625,-9625 0,-5307 4318,-9625 9625,-9625 5307,0 9625,4318 9625,9625 0,5307 -4318,9625 -9625,9625z"></path> <path class="fil0" d="M14674 14482l-6125 -3937c-134,-88 -307,-93 -446,-17 -141,77 -228,224 -228,385l0 7875c0,160 87,307 228,384 65,35 138,53 210,53 82,0 164,-23 236,-70l6125 -3937c125,-80 201,-219 201,-368 0,-149 -76,-288 -201,-368zm-5924 3504l0 -6272 4878 3136 -4878 3136z"></path> </g> </g> </g> <g id="_1472413581248"> </g> <g id="_1472413580672"> </g> <g id="_1472413581568"> </g> <g id="_1472413581536"> </g> <g id="_1472413580256"> </g> <g id="_1472413580192"> </g> <g id="_1472413580128"> </g> <g id="_1472413580832"> </g> <g id="_1472413578624"> </g> <g id="_1472413579072"> </g> <g id="_1472413580000"> </g> <g id="_1472413578080"> </g> <g id="_1472413579648"> </g> <g id="_1472413578592"> </g> <g id="_1472413579456"> </g> </g> </svg> 